<svg xmlns="http://www.w3.org/2000/svg" width="76.295" height="61.789" viewBox="0 0 76.295 61.789">
  <g id="Consultation_Session" data-name="Consultation Session" transform="translate(-0.029 -12.19)">
    <path id="Path_925" data-name="Path 925" d="M76.324,68.925A3.023,3.023,0,0,0,73.307,65.9H63.261c3.029-8.078,3.029-7.888,3.029-8.561a2.677,2.677,0,0,0-4.579-1.9l-4.382,4.388L28.766,57.443,24,52.018a7.566,7.566,0,0,0-7.291-2.4,5.741,5.741,0,0,0-1.115-6.558L14.4,41.864a5.747,5.747,0,0,0-8.114,0c-2.1,2.021-2.57,5.562.286,8.406A5.366,5.366,0,0,0,1.2,52.22a5.437,5.437,0,0,0,3.875,8.8l5.837,18.9v4.77a.6.6,0,0,0,.6.6h4.847a.6.6,0,0,0,.6-.6V80.438H67.864v4.251a.6.6,0,0,0,.6.6h4.847a.6.6,0,0,0,.6-.6V71.883a3.029,3.029,0,0,0,2.421-2.957Zm-53.216-16.1c5.33,6.075,4.972,5.777,5.318,5.807,31.044,2.587,29.255,2.546,29.547,2.254l4.585-4.579A1.485,1.485,0,0,1,65,57.884L62.015,65.9h-26.3a3.011,3.011,0,0,0-2.385-4.847h-8.21L19.239,54a.6.6,0,0,0-.912.763c6.564,7.882,6.129,7.482,6.516,7.482h8.478a1.83,1.83,0,1,1,0,3.655H22.762c-1.431-1.55-5.336-5.759-8.83-9.372a4.656,4.656,0,0,1,1.1-4.895,5.477,5.477,0,0,0,.447-.388A6.4,6.4,0,0,1,23.108,52.8ZM12.466,55.034c-.87-.888-1.687-1.693-2.385-2.385a5.586,5.586,0,0,0,2.856,0,5.747,5.747,0,0,0-.471,2.385ZM7.1,42.687a4.549,4.549,0,0,1,6.427,0L14.72,43.88a4.549,4.549,0,0,1,0,6.409c-.161.131-.334.268-.507.435a4.543,4.543,0,0,1-5.962-.417L7.058,49.114a4.549,4.549,0,0,1,.03-6.427ZM72.723,79.234H11.935L6.313,60.942A5.27,5.27,0,0,0,8.954,59.75c9.688,11.041,7.154,8.424,11.328,12.049.262.221-3.291.143,52.393.143ZM15.775,84.081H12.108V80.426h3.655Zm56.948,0H69.068V80.426h3.655Zm1.872-13.861c-.757.775,3.13.531-53.657.531-3.923-3.357-1.556-.936-11.477-12.252a.6.6,0,0,0-.888,0,4.245,4.245,0,1,1-1.329-6.737c1.085.513,9.67,9.539,14.827,15.155.268.292-3.386.191,51.242.191a1.824,1.824,0,0,1,1.27,3.112Z" transform="translate(0 -11.306)" fill="#013366"/>
    <path id="Path_926" data-name="Path 926" d="M8.524,64.53a.894.894,0,1,0,.894.894A.894.894,0,0,0,8.524,64.53Z" transform="translate(-3.07 -21.136)" fill="#013366"/>
    <path id="Path_930" data-name="Path 930" d="M40.82,31.751a.6.6,0,0,0,.423,1.019h9.688a10.29,10.29,0,1,0-7.685-3.446ZM50.955,13.382a9.1,9.1,0,1,1,0,18.2H42.68c1.979-1.979,2-1.914,2-2.242a.6.6,0,0,0-.179-.423,9.115,9.115,0,0,1,6.433-15.531Z" transform="translate(-16.4)" fill="#013366"/>
    <path id="Path_957" data-name="Path 957" d="M306.5,87.168a2.168,2.168,0,0,0-4.336,0,2.168,2.168,0,1,0,0,4.336,2.168,2.168,0,0,0,4.336,0,2.168,2.168,0,0,0,0-4.336Zm0,3.1h-.619a.619.619,0,0,0-.619.619V91.5a.929.929,0,0,1-1.858,0v-.619a.619.619,0,0,0-.619-.619h-.619a.929.929,0,1,1,0-1.858h.619a.619.619,0,0,0,.619-.619v-.619a.929.929,0,0,1,1.858,0v.619a.619.619,0,0,0,.619.619h.619a.929.929,0,0,1,0,1.858Z" transform="translate(-269.804 -66.855)" fill="#013366"/>
  </g>
</svg>
