<svg xmlns="http://www.w3.org/2000/svg" width="56.782" height="66.789" viewBox="0 0 56.782 66.789">
  <path id="warranty_12029159" d="M90.281,34.8a.831.831,0,0,1,0,1.175L77.3,48.961a.83.83,0,0,1-1.175,0l-7.4-7.4A.831.831,0,1,1,69.9,40.384L76.713,47.2,89.106,34.805A.828.828,0,0,1,90.281,34.8ZM107.673,76.92a.829.829,0,0,1-.847.236L99.7,75.062l-3.7,6.316a.831.831,0,0,1-.718.412l-.065,0a.834.834,0,0,1-.709-.527L88.959,67.044a26.873,26.873,0,0,1-18.917,0L64.489,81.26a.832.832,0,0,1-.709.527l-.065,0A.833.833,0,0,1,63,81.377l-3.7-6.316-7.122,2.094a.832.832,0,0,1-1.009-1.1l6.98-17.865a26.881,26.881,0,1,1,42.709,0l6.98,17.865A.829.829,0,0,1,107.673,76.92ZM68.506,66.411a27.019,27.019,0,0,1-9.148-6.748l-6.025,15.42,6.12-1.8a.833.833,0,0,1,.952.377l3.159,5.4Zm11,.69A25.219,25.219,0,1,0,54.282,41.882,25.248,25.248,0,0,0,79.5,67.1Zm26.168,7.981L99.644,59.661A27.018,27.018,0,0,1,90.5,66.409l4.94,12.646,3.159-5.4a.83.83,0,0,1,.952-.377Zm-6.578-33.2A19.591,19.591,0,1,1,79.5,22.291,19.612,19.612,0,0,1,99.091,41.882Zm-1.663,0A17.928,17.928,0,1,0,79.5,59.81,17.948,17.948,0,0,0,97.429,41.882Z" transform="translate(-51.11 -15)" fill="#013366"/>
</svg>
