<svg xmlns="http://www.w3.org/2000/svg" width="67.176" height="67.228" viewBox="0 0 67.176 67.228">
  <g id="Layer_2_00000132805211397750006070000010405800262162734502_" transform="translate(-1.153 0.047)">
    <g id="Layer_6_copy_7" transform="translate(1.153 -0.047)">
      <g id="_12" transform="translate(0 0)">
        <path id="Path_944" data-name="Path 944" d="M51.626,35.776c-.3,0-.591.013-.893.026,3.6-16.215-7.4-35.725-24.7-35.8C4.453-1.511-5.933,34.949,10.125,50.035a14.341,14.341,0,0,0-9.059,9.86l-.8,3.033a3.4,3.4,0,0,0,2.429,4.149,3.1,3.1,0,0,0,.853.105H50.169a2.714,2.714,0,0,0,.46-.039c.328.013.656.039,1,.039a15.7,15.7,0,1,0,0-31.405ZM26.037.839C41.687.55,53.714,19.4,49.88,35.868a15.744,15.744,0,0,0-13.8,13.339H33.849c-2.416-1.51-1.838-3.112-1.891-5.921a15.21,15.21,0,0,0,8.823-9.755,4.651,4.651,0,0,0,.354-9.191,3.709,3.709,0,0,0-2.258-2.114,25.511,25.511,0,0,1-6.814-3.44.579.579,0,0,0-.84.761l.551.906c-6.394-3.44-9.282-7.457-10.241-9.072a.78.78,0,0,0-1.392.144c-2.206,6.263-5.094,9.256-7.129,10.661a3.726,3.726,0,0,0-1.5,2.193A4.651,4.651,0,0,0,12,33.531a15.112,15.112,0,0,0,9.768,10.11c-.013,2.8.368,4.123-1.891,5.58-2.455.053-6.525-.236-8.836.538C-4.948,35.343,5.057-.658,26.037.839ZM22.584,43.877a15.035,15.035,0,0,0,8.547-.276c.026,2.718-.42,4.385,1.969,6.105l-.315.328L27.35,55.693h-.867l-5.514-5.659-.328-.341a5.288,5.288,0,0,0,.6-.5C22.926,47.671,22.558,46.07,22.584,43.877Zm9.952-23.764a28.1,28.1,0,0,0,6.079,2.9,2.9,2.9,0,0,1,1.969,2.731c-.013,2.416.158,5.541-.67,7.825a14.147,14.147,0,0,1-27.663-4.188V25.115a2.882,2.882,0,0,1,1.234-2.232c2.127-1.47,5.12-4.569,7.392-10.95,1.1,1.8,4.28,6.092,11.186,9.624a.6.6,0,0,0,.735-.131C33.206,20.993,32.746,20.494,32.536,20.113Zm8.836,5.134a3.829,3.829,0,0,1-.354,7.418,15.222,15.222,0,0,0,.394-3.453C41.4,28.883,41.438,25.47,41.372,25.247Zm-29.593,7.4a3.818,3.818,0,0,1-.368-7.392C11.451,27.321,11.254,30.682,11.779,32.651Zm13.247,33.7H3.547a2.555,2.555,0,0,1-2.56-2.56,2.8,2.8,0,0,1,.079-.656L1.853,60.1a13.635,13.635,0,0,1,14.075-10.07L25,59.54Zm2.849-7.024v7.024H25.853V59.383a.407.407,0,0,0-.118-.289c-2.206-2.311-6.394-6.709-8.639-9.059h2.7c.565.591,5.934,6.066,6.315,6.473.184.144.538.683.8.643.263.026.617-.5.788-.643.354-.381,5.7-5.934,6.223-6.486h2.061c-.026.289-.039.591-.053.893-2.56,2.481-5.593,5.751-7.943,8.114a.463.463,0,0,0-.118.3Zm.827,7.024V59.5c2.127-2.153,4.923-5.134,7.234-7.418A15.761,15.761,0,0,0,46.6,66.354Zm23.7-.026h-.013c-.249.013-.5.013-.748.013-.223,0-.446,0-.656-.013l-.21-.013A14.9,14.9,0,0,1,36.764,51.466c0-.223.013-.46.013-.683v-.092c.013-.223.026-.446.053-.67,0-.053.013-.118.013-.171A14.916,14.916,0,0,1,50.1,36.669h.026a14.877,14.877,0,0,1,2.954,29.607c-.236.026-.46.039-.683.053Z" transform="translate(-0.153 0.047)" fill="#013366"/>
        <path id="Path_945" data-name="Path 945" d="M337.384,322.275a7.6,7.6,0,0,1,1.142,9.243l3.886,3.886a1.843,1.843,0,0,1-2.6,2.6l-3.886-3.886a7.561,7.561,0,1,1,1.457-11.843Zm-10.11,10.11a6.757,6.757,0,0,0,8.482.853.417.417,0,0,1,.525.053l4.123,4.123a1,1,0,1,0,1.418-1.418l-4.123-4.123a.417.417,0,0,1-.053-.525,6.735,6.735,0,1,0-10.372,1.037Z" transform="translate(-281.894 -278.036)" fill="#013366"/>
      </g>
      <path id="Path_946" data-name="Path 946" d="M38,20.119a4.909,4.909,0,1,0-4.909,4.917A4.912,4.912,0,0,0,38,20.119Zm-8.962,0A4.062,4.062,0,1,1,33.1,24.189a4.063,4.063,0,0,1-4.062-4.071Z" transform="translate(17.155 29.496)" fill="#013366"/>
      <path id="Path_947" data-name="Path 947" d="M35.676,23.06a.621.621,0,0,0-.626.609.63.63,0,0,0,.626.626.621.621,0,0,0,.609-.626A.607.607,0,0,0,35.676,23.06Z" transform="translate(16.099 28.29)" fill="#013366"/>
      <path id="Path_948" data-name="Path 948" d="M32.276,21.179a.612.612,0,0,0-.609-.609.621.621,0,0,0-.626.609.618.618,0,1,0,1.236,0Z" transform="translate(16.716 28.672)" fill="#013366"/>
      <path id="Path_949" data-name="Path 949" d="M34.946,19.236a.621.621,0,0,0,.609-.626A.612.612,0,0,0,34.946,18a.621.621,0,0,0-.626.609A.636.636,0,0,0,34.946,19.236Z" transform="translate(16.212 29.067)" fill="#013366"/>
      <path id="Path_950" data-name="Path 950" d="M34.406,20.53a.621.621,0,0,0-.626.609.63.63,0,0,0,.626.626.618.618,0,0,0,0-1.236Z" transform="translate(16.295 28.678)" fill="#013366"/>
      <path id="Path_951" data-name="Path 951" d="M32.016,18.636a.621.621,0,0,0,.609-.626.612.612,0,0,0-.609-.609.618.618,0,1,0,0,1.236Z" transform="translate(16.662 29.159)" fill="#013366"/>
      <path id="Path_952" data-name="Path 952" d="M37.756,20.079a.612.612,0,0,0-.609-.609.621.621,0,0,0-.626.609.618.618,0,1,0,1.236,0Z" transform="translate(15.873 28.841)" fill="#013366"/>
      <path id="Path_953" data-name="Path 953" d="M32.886,23.43a.621.621,0,0,0-.626.609.63.63,0,0,0,.626.626.621.621,0,0,0,.609-.626A.612.612,0,0,0,32.886,23.43Z" transform="translate(16.528 28.233)" fill="#013366"/>
    </g>
  </g>
</svg>
