<svg xmlns="http://www.w3.org/2000/svg" width="59.325" height="59.325" viewBox="0 0 59.325 59.325">
  <g id="Group_20048" data-name="Group 20048" transform="translate(-1390 -791.464)">
    <path id="Path_931" data-name="Path 931" d="M55.37,4.944H49.438V3.955A3.955,3.955,0,0,0,45.483,0H3.955A3.955,3.955,0,0,0,0,3.955v35.6A3.955,3.955,0,0,0,3.955,43.51H5.933v7.905A2.957,2.957,0,0,0,10.7,53.771l6.928-5.322H35.259L48.627,58.707a2.938,2.938,0,0,0,1.8.618,2.974,2.974,0,0,0,2.966-2.972v-7.9H55.37a3.955,3.955,0,0,0,3.955-3.955V8.9A3.955,3.955,0,0,0,55.37,4.944ZM9.492,52.2a.959.959,0,0,1-1.028.1.972.972,0,0,1-.554-.884V42.521a.989.989,0,0,0-.989-.989H3.955a1.978,1.978,0,0,1-1.978-1.978V3.955A1.978,1.978,0,0,1,3.955,1.978H45.483A1.978,1.978,0,0,1,47.46,3.955v35.6a1.978,1.978,0,0,1-1.978,1.978H23.73a.978.978,0,0,0-.6.2Zm47.856-7.706a1.978,1.978,0,0,1-1.978,1.978H52.4a.989.989,0,0,0-.989.989v8.889a.975.975,0,0,1-.554.89.963.963,0,0,1-1.028-.1L36.2,46.679a.98.98,0,0,0-.6-.208H20.2l3.864-2.966H45.483a3.955,3.955,0,0,0,3.955-3.955V6.921H55.37A1.978,1.978,0,0,1,57.348,8.9Z" transform="translate(1390 791.464)" fill="#013366"/>
    <path id="Path_932" data-name="Path 932" d="M24.831,33.663A14.831,14.831,0,1,0,10,18.831,14.831,14.831,0,0,0,24.831,33.663Zm0-27.685A12.854,12.854,0,1,1,11.978,18.831,12.854,12.854,0,0,1,24.831,5.978Z" transform="translate(1389.888 791.419)" fill="#013366"/>
    <path id="Path_933" data-name="Path 933" d="M24.989,10.966a.989.989,0,0,0,.989-.989V8.989a.989.989,0,1,0-1.978,0v.989A.989.989,0,0,0,24.989,10.966Z" transform="translate(1389.73 791.374)" fill="#013366"/>
    <path id="Path_934" data-name="Path 934" d="M17.918,13.316a.989.989,0,1,0,1.4-1.4l-.7-.7a.989.989,0,1,0-1.4,1.4Z" transform="translate(1389.81 791.341)" fill="#013366"/>
    <path id="Path_935" data-name="Path 935" d="M16.966,18.989A.989.989,0,0,0,15.978,18h-.989a.989.989,0,1,0,0,1.978h.989A.989.989,0,0,0,16.966,18.989Z" transform="translate(1389.843 791.261)" fill="#013366"/>
    <path id="Path_936" data-name="Path 936" d="M17.918,24.654l-.7.7a.989.989,0,1,0,1.4,1.4l.7-.7a.989.989,0,1,0-1.4-1.4Z" transform="translate(1389.81 791.19)" fill="#013366"/>
    <path id="Path_937" data-name="Path 937" d="M24.989,27a.989.989,0,0,0-.989.989v.989a.989.989,0,1,0,1.978,0v-.989A.989.989,0,0,0,24.989,27Z" transform="translate(1389.73 791.16)" fill="#013366"/>
    <path id="Path_938" data-name="Path 938" d="M31.353,26.751a.989.989,0,1,0,1.4-1.4l-.7-.7a.989.989,0,1,0-1.4,1.4Z" transform="translate(1389.658 791.19)" fill="#013366"/>
    <path id="Path_939" data-name="Path 939" d="M33.989,19.978h.989a.989.989,0,1,0,0-1.978h-.989a.989.989,0,0,0,0,1.978Z" transform="translate(1389.629 791.261)" fill="#013366"/>
    <path id="Path_940" data-name="Path 940" d="M31.353,13.606a.989.989,0,0,0,.7-.29l.7-.7a.989.989,0,1,0-1.4-1.4l-.7.7a.989.989,0,0,0,.7,1.688Z" transform="translate(1389.658 791.341)" fill="#013366"/>
    <path id="Path_941" data-name="Path 941" d="M21.989,21.9a.989.989,0,0,0,.548-.166L25.5,19.755a.989.989,0,0,0,.441-.823V13.989a.989.989,0,1,0-1.978,0V18.4L21.44,20.084a.989.989,0,0,0,.549,1.814Z" transform="translate(1389.764 791.318)" fill="#013366"/>
    <path id="Path_942" data-name="Path 942" d="M39,36.989a.989.989,0,0,0,.989.989h2.966a.989.989,0,1,0,0-1.978H39.989A.989.989,0,0,0,39,36.989Z" transform="translate(1389.562 791.059)" fill="#013366"/>
    <path id="Path_943" data-name="Path 943" d="M36.651,36.989A.989.989,0,0,0,35.663,36H6.989a.989.989,0,1,0,0,1.978H35.663A.989.989,0,0,0,36.651,36.989Z" transform="translate(1389.933 791.059)" fill="#013366"/>
  </g>
</svg>
